<svg xmlns="http://www.w3.org/2000/svg" viewBox="0 0 512 512" width="512" height="512">
	<style>
		tspan { white-space:pre }
	</style>
	<path id="m " fill="#005246" d="M382.23 212.58Q358.6 284.58 358.6 316Q358.6 346.76 368.64 346.76Q370.41 341.53 372.78 332.36Q374.55 336.95 374.55 346.11Q374.55 363.13 365.1 363.13Q334.38 363.13 334.38 304.22Q334.38 276.07 342.65 230.91Q329.06 245.96 315.47 268.22L284.75 316Q259.35 355.93 253.44 355.93Q233.35 355.93 233.35 348.07Q233.35 346.11 239.85 317.31Q260.53 232.22 260.53 201.45Q260.53 187.71 252.85 187.71Q230.99 187.71 193.77 259.05Q180.78 285.24 164.82 324.51Q149.46 363.13 148.28 363.13Q142.38 363.13 135.88 359.85Q129.38 356.58 129.38 352Q129.38 340.87 148.87 273.45Q168.37 205.38 168.37 171.35Q168.37 160.22 160.1 159.56Q151.83 158.25 151.83 155.64Q151.83 149.75 160.69 149.75Q200.27 149.75 200.27 185.75Q200.27 204.07 186.68 246.62L200.27 221.09Q216.81 190.98 230.4 177.24Q244.58 163.49 259.94 163.49Q260.53 163.49 261.12 163.49Q288.3 163.49 288.3 204.07Q288.3 236.8 266.44 308.8L347.37 211.93Q355.05 206.69 368.64 206.69Q382.23 206.69 382.23 212.58Z" />
</svg>
