<svg xmlns="http://www.w3.org/2000/svg" viewBox="0 0 512 512" width="512" height="512">
	<style>
		tspan { white-space:pre }
	</style>
	<path id="M " fill="#ff6b22" d="M348.8 217.4Q320 269.6 320 305.3Q320 328.7 327.8 328.7Q335 328.7 348.5 297.2Q350.6 293.3 351.5 293.3Q352.7 293.3 352.7 295.4Q352.7 297.2 352.4 298.1Q343.7 332.6 326 332.6Q317.6 332.6 312.5 324.5Q307.7 316.1 307.7 305Q307.7 293.6 311 276.2Q314.6 258.5 320.6 240.2Q326.6 221.6 335.9 208.4Q345.2 194.9 355.1 194.9Q359.6 194.9 359.6 196.7Q359.6 198.2 348.8 217.4ZM246.5 299L240.8 311Q238.7 314 231.2 314Q223.7 314 223.7 309.8Q223.4 309.8 246.2 263.9Q269.3 218 269.3 202.7Q269.3 194.3 262.7 194.3Q245.9 194.6 225.2 213.8Q204.5 233 185.6 262.4Q161.6 297.2 161.6 327.5Q161.6 334.4 162.8 338.3Q164 341.9 164.6 342.5Q166.1 344 166.1 345.2Q166.1 346.1 164.6 346.1Q160.1 346.1 156.2 338Q152.3 329.6 152.3 319.1Q152.3 277.1 201.5 192.2Q203.6 187.4 209.6 177.2Q215.9 166.7 219.5 166.7Q223.4 166.7 227.9 168.5Q232.7 170.3 232.7 172.7Q199.4 227.3 189.8 246.8Q233.6 185.9 266.3 185.9Q282.2 185.9 282.2 204.2Q282.2 227.3 254.3 284Q269.9 269.6 307.4 231.2Q310.1 227 321.5 215Q333.2 202.7 337.4 202.7Q338.3 202.7 338.3 203.6Q270.8 278 246.5 299Z" />
</svg>