<?xml version="1.0" standalone="no"?>
<svg
  width="600"
  height="600"
  viewBox="0 0 600 600"
  xmlns="http://www.w3.org/2000/svg"
>
  <g transform="translate(300,300)">
    <path d="M114.2,-194.7C125.8,-148.8,97.6,-85.7,111.7,-37.4C125.9,10.8,182.3,44.2,188.4,72.4C194.6,100.5,150.5,123.5,110.7,136.2C70.9,149,35.5,151.5,9,139.1C-17.4,126.7,-34.9,99.3,-74.2,86.4C-113.5,73.5,-174.7,75.1,-193.1,54.3C-211.5,33.5,-187,-9.7,-162.7,-43.1C-138.4,-76.5,-114.2,-100.1,-87.1,-141C-60,-181.9,-30,-239.9,10.7,-254.6C51.3,-269.3,102.7,-240.6,114.2,-194.7Z" fill="#005246" />
  </g>
</svg>
  