<?xml version="1.0" standalone="no"?>
<svg
  width="600"
  height="600"
  viewBox="0 0 600 600"
  xmlns="http://www.w3.org/2000/svg"
>
  <g transform="translate(300,300)">
    <path d="M134.8,-193.3C150.1,-147.9,120.8,-82,123.7,-27.5C126.6,27.1,161.6,70.3,163.3,119.5C164.9,168.7,133.2,223.9,94.8,220.5C56.4,217.1,11.3,155,-22.7,118.4C-56.6,81.7,-79.4,70.3,-112.2,48.1C-144.9,25.8,-187.7,-7.4,-201.6,-54.2C-215.6,-100.9,-200.7,-161.1,-162.3,-202.5C-123.8,-243.9,-61.9,-266.5,-1.1,-265.2C59.8,-263.9,119.6,-238.8,134.8,-193.3Z" fill="#ffe7d4" />
  </g>
</svg>
  