<?xml version="1.0" standalone="no"?>
<svg
  width="600"
  height="600"
  viewBox="0 0 600 600"
  xmlns="http://www.w3.org/2000/svg"
>
  <g transform="translate(300,300)">
    <path d="M97.3,-98.8C138,-81.8,191.1,-62.4,208.9,-27.1C226.6,8.1,209,59.3,177.7,92.3C146.4,125.3,101.4,140.2,56,159.1C10.5,177.9,-35.5,200.8,-78.1,194.1C-120.7,187.4,-159.9,151.2,-195.3,105.3C-230.6,59.4,-262,3.8,-257,-48.9C-252,-101.7,-210.5,-151.6,-161.6,-167.1C-112.7,-182.6,-56.4,-163.8,-14,-147.1C28.3,-130.4,56.6,-115.7,97.3,-98.8Z" fill="#ffe7d4" />
  </g>
</svg>
  