<?xml version="1.0" standalone="no"?>
<svg
  width="600"
  height="600"
  viewBox="0 0 600 600"
  xmlns="http://www.w3.org/2000/svg"
>
  <g transform="translate(300,300)">
    <path d="M68,-89.3C91,-61.7,114.4,-43,140,-8.4C165.5,26.3,193.2,76.9,180.5,109.1C167.7,141.4,114.7,155.3,72.4,148.9C30.2,142.5,-1.1,115.9,-49.1,109.5C-97,103,-161.5,116.8,-191.9,95.6C-222.3,74.4,-218.5,18.3,-188.8,-13.1C-159.2,-44.4,-103.7,-50.9,-67.9,-76.3C-32.1,-101.6,-16.1,-145.8,3.2,-149.6C22.5,-153.5,45,-117,68,-89.3Z" fill="#ffe7d4" />
  </g>
</svg>
  