<?xml version="1.0" standalone="no"?>
<svg
  width="600"
  height="600"
  viewBox="0 0 600 600"
  xmlns="http://www.w3.org/2000/svg"
>
  <g transform="translate(300,300)">
    <path d="M140.8,-186.3C175.1,-169,190.2,-117.8,196.6,-70.5C202.9,-23.1,200.4,20.6,190,64.6C179.7,108.7,161.6,153,128.6,185.5C95.6,217.9,47.8,238.5,-2.7,242.2C-53.3,246,-106.6,233,-121.2,194.6C-135.8,156.2,-111.6,92.3,-115.3,45.8C-118.9,-0.7,-150.3,-29.9,-152.8,-58.2C-155.4,-86.5,-129.1,-114.1,-98.9,-132.7C-68.6,-151.4,-34.3,-161.2,9.5,-174.3C53.3,-187.4,106.6,-203.7,140.8,-186.3Z" fill="#005246" />
  </g>
</svg>
  