<?xml version="1.0" standalone="no"?>
<svg
  width="600"
  height="600"
  viewBox="0 0 600 600"
  xmlns="http://www.w3.org/2000/svg"
>
  <g transform="translate(300,300)">
    <path d="M127,-148.7C146.9,-134.7,133,-77.8,126.6,-34.2C120.1,9.5,121.1,40,111.2,70.7C101.2,101.5,80.4,132.5,54.8,135C29.3,137.5,-0.9,111.5,-37.4,99.6C-73.9,87.7,-116.6,89.8,-126.2,73C-135.8,56.1,-112.2,20.2,-100.4,-12.7C-88.7,-45.7,-88.7,-75.7,-73.9,-90.6C-59.1,-105.5,-29.6,-105.2,12,-119.5C53.6,-133.8,107.1,-162.7,127,-148.7Z" fill="#ffe7d4" />
  </g>
</svg>
  