<?xml version="1.0" standalone="no"?>
<svg
  width="600"
  height="600"
  viewBox="0 0 600 600"
  xmlns="http://www.w3.org/2000/svg"
>
  <g transform="translate(300,300)">
    <path d="M103.2,-113C137.8,-93.9,172.8,-65.3,183.8,-28.6C194.8,8.1,181.8,52.8,150.1,66.7C118.3,80.7,67.7,63.8,22.7,93.9C-22.3,124,-61.8,201.1,-64.8,193.3C-67.8,185.6,-34.3,93,-40.3,42.7C-46.2,-7.7,-91.5,-15.9,-117.7,-47.3C-143.8,-78.7,-150.6,-133.2,-127.8,-154.3C-105,-175.5,-52.5,-163.2,-9.1,-152.4C34.3,-141.5,68.6,-132,103.2,-113Z" fill="#ffe7d4" />
  </g>
</svg>
  